<?xml version="1.0" encoding="UTF-8"?>
<svg id="Layer_2" data-name="Layer 2" xmlns="http://www.w3.org/2000/svg" viewBox="0 0 670.22 95.46">
  <defs>
    <style>
      .cls-1 {
        fill: #525266;
        stroke-width: 0px;
      }
    </style>
  </defs>
  <g id="Layer_1-2" data-name="Layer 1">
    <g>
      <path class="cls-1" d="m82.34,71.64v9.85c0,.48-.39.86-.86.86h-23.55c-.59,0-1-.58-.82-1.14l5.2-15.52c.93-2.78.63-5.83-.84-8.37l-19.45-33.77c-.38-.66-1.33-.66-1.71,0l-19.45,33.77c-1.46,2.54-1.77,5.59-.84,8.37l5.2,15.52c.19.56-.23,1.14-.82,1.14H.86c-.48,0-.86-.39-.86-.86v-9.85c0-9.18,2.32-18.21,6.76-26.25L30.61,2.14C31.34.82,32.73,0,34.24,0h13.87c1.51,0,2.9.82,3.62,2.14l23.86,43.26c4.43,8.04,6.76,17.07,6.76,26.25Z"/>
      <circle class="cls-1" cx="41.23" cy="62.25" r="9.04"/>
    </g>
    <path class="cls-1" d="m139.94,14.61l-.17,2.7c-3.52-1.68-7.46-2.62-11.61-2.62-14.86,0-26.91,12.02-26.91,26.85s12.05,26.87,26.91,26.87c4.16,0,8.11-.94,11.63-2.62l.15,2.5h15.15V14.61h-15.15Zm-11.78,37.09c-5.55,0-10.08-4.53-10.08-10.1s4.53-10.08,10.08-10.08,10.1,4.53,10.1,10.08-4.53,10.1-10.1,10.1Z"/>
    <polygon class="cls-1" points="471.18 14.68 469.49 28.15 463.71 28.15 463.73 68.53 446.9 68.53 446.88 28.15 439.4 28.15 441.09 14.68 446.88 14.68 446.9 1.69 463.73 0 463.71 14.68 471.18 14.68"/>
    <path class="cls-1" d="m530.43,14.69v53.84h-15.15l-.17-2.74c-3.52,1.68-7.46,2.63-11.61,2.63-3.57,0-6.97-.69-10.08-1.97-9.86-3.97-16.83-13.65-16.83-24.96V14.69h16.83v26.79c0,5.57,4.53,10.1,10.08,10.1s10.1-4.53,10.1-10.1V14.69h16.83Z"/>
    <path class="cls-1" d="m273.31,45.72c.2-1.38.32-2.78.32-4.21s-.12-2.84-.32-4.21c-2.04-12.87-13.18-22.72-26.61-22.72s-24.57,9.85-26.61,22.72c-.2,1.36-.32,2.78-.32,4.21s.12,2.83.32,4.21c2.02,12.87,13.16,22.72,26.61,22.72,7.42,0,14.15-3.01,19.03-7.89l-11.9-11.9c-1.83,1.83-4.36,2.96-7.14,2.96-4.06,0-7.57-2.41-9.17-5.89h35.78Zm-26.61-14.31c4.06,0,7.57,2.41,9.17,5.89h-18.34c1.6-3.48,5.12-5.89,9.17-5.89Z"/>
    <path class="cls-1" d="m575.24,0l-1.41,17.52c-3.62-1.82-7.72-2.84-12.05-2.84-14.88,0-26.93,12.07-26.93,26.93s12.05,26.93,26.93,26.93c4.16,0,8.1-.94,11.61-2.63l.17,2.63h15.15V0h-13.46Zm-13.46,51.7c-5.57,0-10.1-4.53-10.1-10.1s4.53-10.1,10.1-10.1,10.1,4.53,10.1,10.1v.02c-.02,5.57-4.54,10.08-10.1,10.08Z"/>
    <path class="cls-1" d="m643.3,31.51c5.57,0,10.09,4.53,10.09,10.09s-4.53,10.09-10.09,10.09-10.09-4.53-10.09-10.09,4.53-10.09,10.09-10.09m0-16.83c-14.87,0-26.92,12.05-26.92,26.92s12.05,26.92,26.92,26.92,26.92-12.05,26.92-26.92-12.05-26.92-26.92-26.92h0Z"/>
    <path class="cls-1" d="m324.96,22.55l-11.9,11.9c-1.82-1.78-4.31-2.91-7.09-2.91-5.52,0-10.01,4.46-10.1,9.95v.15c0,.12,0,.24.02.34v26.56h-16.83l-.02-53.85h15.15l.21,2.63c3.5-1.67,7.44-2.61,11.58-2.61,7.41,0,14.12,3,18.98,7.84Z"/>
    <path class="cls-1" d="m376.26,22.55l-11.9,11.9c-1.82-1.78-4.31-2.91-7.09-2.91-5.52,0-10.01,4.46-10.1,9.95v.15c0,.12,0,.24.02.34v26.56h-16.83l-.02-53.85h15.15l.21,2.63c3.5-1.67,7.44-2.61,11.58-2.61,7.41,0,14.12,3,18.98,7.84Z"/>
    <path class="cls-1" d="m199.21,14.69l-.17,2.63c-3.52-1.68-7.46-2.63-11.61-2.63-14.88,0-26.93,12.05-26.93,26.91,0,4.91,1.31,9.51,3.6,13.46,3.01,5.22,7.74,9.34,13.41,11.56,3.06,1.23,6.41,1.9,9.91,1.9s6.85-.67,9.91-1.9c.07,0,.13-.03.19-.07v1.97c0,5.57-4.54,10.1-10.1,10.1-2.79,0-5.32-1.13-7.14-2.96l-11.92,11.92c4.88,4.86,11.61,7.88,19.05,7.88,3.57,0,6.98-.69,10.1-1.97,9.86-3.99,16.83-13.65,16.83-24.96V14.69h-15.15Zm-1.87,28.81c-.89,4.66-5,8.2-9.91,8.2s-9.02-3.53-9.91-8.2c-.12-.61-.19-1.25-.19-1.9,0-5.55,4.53-10.08,10.1-10.08s10.1,4.53,10.1,10.08v1.97c-.05-.03-.12-.07-.19-.07Z"/>
    <g>
      <polygon class="cls-1" points="610.95 18.51 610.95 68.53 594.12 68.53 594.12 41.61 595.8 18.51 610.95 18.51"/>
      <rect class="cls-1" x="595.8" width="15.15" height="14.68"/>
    </g>
    <polygon class="cls-1" points="373.26 68.53 373.26 51.7 390.09 51.7 373.26 68.53"/>
    <polygon class="cls-1" points="390.09 51.7 390.09 68.53 373.26 68.53 390.09 51.7"/>
    <path class="cls-1" d="m416.25,68.66c-5.84,0-11.34-2.28-15.47-6.41l11.9-11.9c1.9,1.91,5.23,1.9,7.13,0,.95-.95,1.48-2.22,1.48-3.57s-.52-2.61-1.48-3.57l11.9-11.9c4.13,4.13,6.41,9.63,6.41,15.47s-2.27,11.34-6.41,15.47c-4.13,4.13-9.62,6.41-15.47,6.41Z"/>
    <path class="cls-1" d="m400.77,44.49c-4.13-4.13-6.41-9.63-6.41-15.47s2.27-11.34,6.41-15.47c4.13-4.13,9.62-6.41,15.47-6.41s11.34,2.28,15.47,6.41l-11.9,11.9c-1.9-1.91-5.23-1.9-7.13,0-.95.95-1.48,2.22-1.48,3.57s.52,2.62,1.48,3.57l-11.9,11.9Z"/>
  </g>
</svg>