<?xml version="1.0" encoding="UTF-8"?>
<svg id="Layer_2" data-name="Layer 2" xmlns="http://www.w3.org/2000/svg" viewBox="0 0 1049.15 212.5">
  <defs>
    <style>
      .cls-1 {
        fill: #c1272d;
      }

      .cls-1, .cls-2 {
        stroke-width: 0px;
      }

      .cls-2 {
        fill: #39b54a;
      }
    </style>
  </defs>
  <g id="Layer_1-2" data-name="Layer 1">
    <g>
      <path class="cls-2" d="m771.62,1.82c1.14-.3,1.85-.65,2.56-.65,6.01.05,12.06-.54,18.04.33,12.85,1.87,21.89,8.91,26.93,20.83,2.68,6.35,4.92,12.88,7.31,19.35,15.25,41.15,30.49,82.3,45.76,123.44.5,1.34.6,3.01,2.28,3.62,1.31-.47,1.48-1.69,1.86-2.71,2.04-5.53,4.03-11.07,6.05-16.61,5.24-14.37,10.49-28.74,15.72-43.11,2.98-8.2,6.98-15.85,12.53-22.6,12.62-15.36,28.72-24.82,48.4-27.95,22.69-3.61,43.19,1.88,61.07,16.11,15.88,12.63,25.17,29.35,28.17,49.47,4.82,32.36-11.21,59.34-30.1,73.3-10.26,7.59-21.72,12.46-34.29,14.63-5.71.98-11.5,1-17.27.66-20.62-1.24-37.99-9.52-52.15-24.47-2.94-3.1-3.73-3.14-5.26,1.27-2.27,6.51-4.74,12.95-7.12,19.42-.26.71-.51,1.42-.81,2.11-.43,1-1.26,1.57-2.3,1.74-.86.14-1.75.14-2.62.14-14.43,0-28.87.01-43.3,0-4.69,0-4.83-.1-6.49-4.6-14.42-39.05-28.83-78.11-43.23-117.16-10.2-27.65-20.38-55.29-30.56-82.94-.39-1.05-.69-2.12-1.16-3.61Zm199.68,90.8c-23.56-.18-39.88,19.27-39.9,39.9-.03,20.56,16.92,39.81,39.83,39.8,23.26,0,40.1-19.14,40.1-39.92,0-19.71-15.59-39.95-40.03-39.78Z"/>
      <path class="cls-1" d="m46.27,70.81c1.17-.96,2.07-1.61,2.87-2.36,8.92-8.37,19.54-12.3,31.73-12.64,16.2-.46,31.02,3.57,44.38,12.82,12.59,8.71,21.12,20.53,26.63,34.68,4.49,11.54,5.95,23.52,5.3,35.82-.8,15.12-5.15,29.07-13.69,41.63-11.13,16.38-26.53,26.32-45.85,30.3-6.43,1.33-12.92,1.85-19.46,1.12-7.61-.85-14.57-3.61-21.09-7.54-3.55-2.14-6.84-4.65-9.92-7.44-.72-.65-1.54-1.2-2.49-1.94-.56.98-1.04,1.68-1.38,2.44-1.07,2.41-2.07,4.84-3.11,7.26-1.34,3.09-3.64,4.59-7.07,4.56-8.03-.07-16.06-.02-24.09-.03-.63,0-1.26-.01-1.88-.08-3.84-.46-6.17-2.57-6.86-6.38-.24-1.34-.27-2.74-.27-4.12-.02-13.8-.01-27.6-.01-41.4,0-48.43,0-96.86.02-145.29,0-1.87.08-3.78.45-5.6C1.24,2.81,3.89.55,7.78.16,9.28.02,10.79,0,12.29,0c7.91,0,15.81.04,23.72.08.88,0,1.78.02,2.62.22,3.32.77,5.7,2.67,6.38,6.12.38,1.95.53,3.98.54,5.97.04,17.94.02,35.88.04,53.83,0,1.33-.3,2.73.69,4.59Zm68.33,63.14c.21-6.68-1.24-13.11-4.26-19.17-6.33-12.67-18.74-21.28-35.68-18.82-23.63,3.43-34,25.1-32.52,41.41,1.84,20.34,19.17,35.44,39.59,34.36,12.42-.66,21.98-6.34,28.06-17.42,3.46-6.31,5-13.08,4.82-20.36Z"/>
      <path class="cls-1" d="m392.41,196.03c-1.83.18-2.55,1.3-3.48,2.09-5.86,5.04-12.31,9.06-19.69,11.5-7.62,2.52-15.39,3.29-23.38,2.4-8.41-.93-16.59-2.7-24.28-6.3-17.55-8.23-31.06-20.61-38.95-38.57-5.6-12.75-7.98-26.14-6.97-40.01,1.23-16.95,7.86-31.76,18.76-44.69,11.16-13.25,25.45-21.31,42.27-25.04,8.79-1.95,17.64-2.34,26.54-.88,12,1.97,21.93,7.59,29.76,16.9.73.86,1.46,1.71,2.23,2.54.14.15.46.15.76.24,1.01-.28.98-1.31,1.25-2.06,1.33-3.65,2.6-7.32,3.9-10.99.21-.59.48-1.16.71-1.74,1.02-2.66,2.99-3.92,5.79-3.96.25,0,.5,0,.75,0,6.15,0,12.3-.02,18.45.02,1.11,0,2.28.11,3.33.44,3.43,1.1,5.48,3.42,5.77,7.09.1,1.25.11,2.51.11,3.76,0,43.04,0,86.08,0,129.12,0,1.5-.01,3.02-.18,4.51-.46,4.06-3.04,6.57-7.11,7-.87.09-1.75.08-2.63.08-7.28,0-14.56,0-21.84,0-.75,0-1.51-.02-2.26-.04-2.94-.08-5.02-1.45-6.12-4.17-.84-2.09-1.56-4.23-2.34-6.35-.34-.93-.72-1.84-1.13-2.91Zm-1.57-62.44c0-.18,0-.81,0-1.43-.29-20.69-19.59-38.5-40.1-36.5-11.68,1.14-20.8,6.19-26.67,16.45-7.43,12.98-7.94,26.5-1.99,40.08,4.03,9.2,11.28,15.18,20.85,18.25,5.49,1.76,11.07,1.74,16.72.76,20.66-3.56,31.82-20.93,31.19-37.61Z"/>
      <path class="cls-1" d="m543.07,77.22c1-1.11,1.63-1.69,2.12-2.37,3.76-5.2,8.67-9.03,14.33-11.93,8.96-4.59,18.47-7.02,28.57-7.04,5.03,0,10.03.14,14.96,1.27,12.33,2.82,22.37,9.25,30.19,19.16,6.59,8.34,10.51,17.88,12.66,28.22,1.2,5.8,1.66,11.66,1.66,17.57-.01,25.21,0,50.43-.01,75.64,0,1.63-.01,3.27-.16,4.89-.39,4.51-2.79,6.8-7.33,6.84-7.15.07-14.3.02-21.46.02-2.38,0-4.77.01-7.15,0-1,0-2.02,0-3-.15-3.01-.46-4.41-1.77-4.91-4.81-.3-1.85-.45-3.74-.47-5.61-.06-5.77-.03-11.54-.02-17.31.02-18.94-.13-37.89.13-56.82.2-14.93-14.67-28.32-29.32-26.79-1.49.15-3.02.37-4.4.89-10.03,3.77-17.01,10.42-19.51,21.14-.31,1.33-.41,2.72-.47,4.1-.08,1.75-.02,3.51-.02,5.27-.02,21.7-.05,43.4-.07,65.1,0,1.76.11,3.51.04,5.27-.05,1.37-.18,2.76-.49,4.09-.78,3.33-3.07,5.06-6.35,5.53-.99.14-2,.11-3.01.12-8.66,0-17.31.01-25.97,0-1.25,0-2.53-.01-3.74-.27-2.98-.63-4.89-2.5-5.52-5.49-.34-1.58-.59-3.22-.59-4.84-.03-43.53-.02-87.06-.02-130.59,0-.5,0-1.01.04-1.5.49-5.37,3.67-8.46,9.1-8.55,6.27-.11,12.55-.05,18.82-.02,3.36.02,5.84,1.63,7.06,4.69,1.25,3.13,2.15,6.41,3.15,9.64.41,1.31.68,2.66,1.17,4.66Z"/>
      <path class="cls-2" d="m753.13,146.89c-14.56,0-29.12,0-43.68,0-1.63,0-3.27.01-4.89.12-1.43.1-1.99.91-1.56,2.32.36,1.19.82,2.37,1.39,3.48,5.2,10.02,13.54,15.91,24.46,18.26,7.77,1.67,15.45,1.22,23.02-1.28,2.37-.78,4.78-1.61,7.24-1.97,6.67-1,12.46.87,16.83,6.17,2.15,2.61,4.03,5.44,5.98,8.21,1.73,2.47,3.4,4.97,5.03,7.5.88,1.37.76,2.23-.42,3.31-.83.76-1.73,1.45-2.64,2.12-10.8,8-22.89,12.99-36.18,14.79-16.24,2.2-32.03.55-47.1-6.32-8.2-3.74-15.52-8.73-21.75-15.24-10.94-11.41-18.42-24.68-21.23-40.35-1.49-8.32-1.57-16.71-.7-25.12.86-8.3,2.86-16.3,6.31-23.9,6.1-13.45,15.03-24.57,27.39-32.77,9.92-6.58,20.9-10.18,32.75-11.21,10.74-.93,21.35-.08,31.69,2.85,22.83,6.49,37.94,21.2,45.53,43.65,4.5,13.31,5.34,26.99,4.1,40.89-.01.12-.03.25-.05.37-.53,3.76-.88,4.1-4.82,4.11-15.56.02-31.13,0-46.69,0Zm-21.39-29.58c8.39,0,16.78,0,25.17,0,1.13,0,2.26.02,3.37-.11,1.81-.2,2.34-.96,1.84-2.84-2.58-9.65-8.15-16.79-17.56-20.61-3.39-1.38-6.99-1.93-10.65-1.99-13.81-.24-25.61,5.63-31.26,20.51-1.42,3.76-1.44,5.13,3.53,5.07,8.51-.1,17.03-.03,25.54-.03Z"/>
      <path class="cls-1" d="m203.93,76.5c1.43-1.45,2.54-2.62,3.69-3.75,2.85-2.82,5.61-5.75,8.59-8.43,6.42-5.78,13.96-8.54,22.66-8.58,11.67-.05,22.25,3.12,31.81,9.78,2.78,1.94,5.61,3.79,8.35,5.79,4.65,3.38,5.34,6.11,2.87,11.32-.8,1.7-1.8,3.3-2.75,4.93-2.47,4.22-4.95,8.43-7.44,12.64-.51.86-1.01,1.74-1.6,2.54-3.51,4.73-8.74,5.57-13.53,2.15-1.43-1.02-2.73-2.2-4.13-3.27-3.43-2.63-7.23-4.52-11.5-5.32-9.4-1.77-17.76.05-24.2,7.57-2.27,2.65-4.18,5.63-6.21,8.49-.9,1.26-1.19,2.75-1.24,4.28-.03,1.13-.02,2.26-.02,3.39,0,25.96,0,51.93,0,77.89,0,1.5.02,3.02-.1,4.51-.38,4.54-2.68,6.82-7.23,6.98-3.88.14-7.78.1-11.66.1-5.65,0-11.29-.03-16.94-.05-.5,0-1,0-1.51-.02-4.88-.21-7.32-2.5-7.77-7.39-.12-1.37-.1-2.76-.1-4.14,0-42.77,0-85.54,0-128.31,0-1.25-.04-2.52.1-3.76.48-4.23,3.36-7.09,7.59-7.59.74-.09,1.5-.07,2.26-.07,5.52,0,11.04.11,16.56-.04,3.57-.1,6.12,1.36,7.63,4.43,1.32,2.68,2.35,5.52,3.4,8.33.65,1.74.99,3.59,2.45,5.61Z"/>
      <path class="cls-1" d="m447.11,134.21c0-21.33,0-42.65,0-63.98,0-1.38-.04-2.77.08-4.14.45-5,3.32-7.84,8.32-7.89,9.16-.1,18.32-.12,27.48,0,5.08.07,8.74,3.4,9.61,8.4.21,1.22.21,2.5.21,3.74.01,42.27.02,84.55-.01,126.82,0,2-.17,4.02-.5,5.99-.59,3.5-2.73,5.56-6.19,6.17-.74.13-1.5.16-2.25.16-9.41.01-18.82.02-28.23,0-1.11,0-2.26-.15-3.33-.44-2.36-.63-4-2.13-4.56-4.54-.36-1.57-.58-3.21-.6-4.82-.07-5.27-.03-10.54-.03-15.81,0-16.56,0-33.12,0-49.68Z"/>
      <path class="cls-2" d="m469.45,45.69c-12.67-.23-22.04-9.72-21.91-23.26.12-12.15,10.47-21.51,23.14-21.3,12.05.2,22.07,10.6,21.5,23.33-.55,12.24-10.36,21.55-22.74,21.23Z"/>
    </g>
  </g>
</svg>